<svg width="357" height="191" viewBox="0 0 357 191" fill="none" xmlns="http://www.w3.org/2000/svg">
<path d="M114.896 55.1624L95.1706 104.78L36.2604 82.3194L55.9862 32.7013C62.4175 16.5244 80.8183 8.43838 97.0861 14.6408C113.354 20.8432 121.327 38.9855 114.896 55.1624Z" fill="#EF6C6C" stroke="black" stroke-width="6"/>
<path d="M15.1037 135.537L34.8294 85.919L93.7396 108.38L74.0138 157.998C67.5825 174.175 49.1817 182.261 32.9139 176.058C16.6465 169.856 8.67252 151.714 15.1037 135.537Z" fill="#E2EEF4" stroke="black" stroke-width="6"/>
<path d="M78.2878 134.078L78.2878 134.078C63.3684 127.633 56.451 110.292 62.9338 95.3064L78.2878 134.078ZM78.2878 134.078C93.206 140.522 110.584 133.677 117.066 118.694M78.2878 134.078L117.066 118.694M117.066 118.694C123.549 103.708 116.632 86.3666 101.712 79.9221M117.066 118.694L101.712 79.9221M101.712 79.9221C86.794 73.4779 69.4159 80.3226 62.9339 95.3063L101.712 79.9221Z" stroke="#74E2E8" stroke-width="7"/>
<path d="M114.866 118.326C109.191 131.467 93.9118 137.57 80.6981 131.853C67.4843 126.136 61.4586 110.814 67.1338 97.6737C72.8091 84.5331 88.0882 78.4299 101.302 84.1471C114.515 89.8644 120.541 105.186 114.866 118.326Z" fill="#E2EEF4" stroke="black" stroke-width="4"/>
<path d="M91.1651 87.082C91.1607 86.493 90.6742 86.012 90.0785 86.0077C89.4829 86.0035 89.0036 86.4775 89.0081 87.0666L89.1505 105.89C89.1549 106.479 89.6414 106.96 90.2371 106.965C90.8327 106.969 91.312 106.495 91.3075 105.906L91.1651 87.082Z" fill="black" stroke="black" stroke-width="0.808584"/>
<path d="M91.8189 109.772L91.8189 109.772C91.3666 110.198 91.3544 110.894 91.7916 111.327L99.0749 118.53C99.5121 118.963 100.233 118.968 100.685 118.541C101.138 118.115 101.15 117.419 100.713 116.987L93.4294 109.783C92.9922 109.351 92.2711 109.346 91.8189 109.772Z" fill="black"/>
<path d="M91.8189 109.772L91.8189 109.772C92.2711 109.346 92.9922 109.351 93.4294 109.783L100.713 116.987C101.15 117.419 101.138 118.115 100.685 118.541L100.685 118.541C100.233 118.968 99.5121 118.963 99.0749 118.53L91.7916 111.327C91.3544 110.894 91.3666 110.198 91.8189 109.772Z" stroke="black" stroke-width="0.843835"/>
<path d="M93.7344 108.936C93.0197 110.634 91.006 111.509 89.1579 110.689C87.3098 109.868 86.5513 107.762 87.2656 106.064C87.9803 104.366 89.994 103.491 91.8421 104.311C93.6902 105.132 94.4487 107.238 93.7344 108.936Z" fill="#E2EEF4" stroke="black"/>
<path d="M113.497 66.7689C114.096 65.265 113.332 63.5685 111.791 62.9798C110.25 62.3911 108.515 63.1331 107.916 64.637L102.608 77.9625C102.009 79.4664 102.773 81.1629 104.314 81.7516C105.855 82.3403 107.59 81.5983 108.189 80.0944L113.497 66.7689Z" fill="black"/>
<path d="M84.5955 139.471C85.1768 138.011 84.3992 136.351 82.8587 135.763C81.3181 135.174 79.5981 135.88 79.0168 137.34L74.3573 149.039C73.7761 150.498 74.5537 152.158 76.0942 152.747C77.6347 153.335 79.3548 152.629 79.9361 151.169L84.5955 139.471Z" fill="black"/>
<path d="M51.1382 84.8056C48.5285 83.8002 45.5913 85.0306 44.5778 87.5537C43.5643 90.0768 44.8584 92.9371 47.4682 93.9425L58.5014 98.1928C61.1112 99.1982 64.0484 97.9678 65.0618 95.4448C66.0753 92.9217 64.7812 90.0613 62.1715 89.0559L51.1382 84.8056Z" fill="black"/>
<path d="M95.5102 23.875C100.902 25.2393 110.145 35.4714 108.605 43.657C106.656 54.0113 100.645 65.9404 98.5912 71.625" stroke="#FFFCFC" stroke-width="4"/>
<path d="M133.034 77.5909H142.136L151.75 101.045H152.159L161.773 77.5909H170.875V112.5H163.716V89.7784H163.426L154.392 112.33H149.517L140.483 89.6932H140.193V112.5H133.034V77.5909ZM188.751 113.011C186.058 113.011 183.74 112.466 181.797 111.375C179.865 110.273 178.376 108.716 177.331 106.705C176.286 104.682 175.763 102.29 175.763 99.5284C175.763 96.8352 176.286 94.4716 177.331 92.4375C178.376 90.4034 179.848 88.8182 181.746 87.6818C183.655 86.5455 185.893 85.9773 188.462 85.9773C190.189 85.9773 191.797 86.2557 193.286 86.8125C194.786 87.358 196.092 88.1818 197.206 89.2841C198.331 90.3864 199.206 91.7727 199.831 93.4432C200.456 95.1023 200.768 97.0455 200.768 99.2727V101.267H178.661V96.767H193.933C193.933 95.7216 193.706 94.7955 193.251 93.9886C192.797 93.1818 192.166 92.5511 191.359 92.0966C190.564 91.6307 189.638 91.3977 188.581 91.3977C187.479 91.3977 186.501 91.6534 185.649 92.1648C184.808 92.6648 184.149 93.3409 183.672 94.1932C183.195 95.0341 182.95 95.9716 182.939 97.0057V101.284C182.939 102.58 183.178 103.699 183.655 104.642C184.143 105.585 184.831 106.312 185.717 106.824C186.604 107.335 187.655 107.591 188.871 107.591C189.678 107.591 190.416 107.477 191.087 107.25C191.757 107.023 192.331 106.682 192.808 106.227C193.286 105.773 193.649 105.216 193.899 104.557L200.615 105C200.274 106.614 199.575 108.023 198.518 109.227C197.473 110.42 196.121 111.352 194.462 112.023C192.814 112.682 190.911 113.011 188.751 113.011ZM215.155 112.926C213.166 112.926 211.365 112.415 209.751 111.392C208.149 110.358 206.876 108.841 205.933 106.841C205.001 104.83 204.536 102.364 204.536 99.4432C204.536 96.4432 205.018 93.9489 205.984 91.9602C206.95 89.9602 208.234 88.4659 209.837 87.4773C211.45 86.4773 213.217 85.9773 215.138 85.9773C216.604 85.9773 217.825 86.2273 218.803 86.7273C219.791 87.2159 220.587 87.8295 221.189 88.5682C221.803 89.2955 222.268 90.0114 222.587 90.7159H222.808V77.5909H230.053V112.5H222.893V108.307H222.587C222.246 109.034 221.763 109.756 221.138 110.472C220.524 111.176 219.723 111.761 218.734 112.227C217.757 112.693 216.564 112.926 215.155 112.926ZM217.456 107.148C218.626 107.148 219.615 106.83 220.422 106.193C221.24 105.545 221.865 104.642 222.297 103.483C222.74 102.324 222.962 100.966 222.962 99.4091C222.962 97.8523 222.746 96.5 222.314 95.3523C221.882 94.2045 221.257 93.3182 220.439 92.6932C219.621 92.0682 218.626 91.7557 217.456 91.7557C216.263 91.7557 215.257 92.0795 214.439 92.7273C213.621 93.375 213.001 94.2727 212.581 95.4205C212.161 96.5682 211.95 97.8977 211.95 99.4091C211.95 100.932 212.161 102.278 212.581 103.449C213.013 104.608 213.632 105.517 214.439 106.176C215.257 106.824 216.263 107.148 217.456 107.148ZM236.023 112.5V86.3182H243.284V112.5H236.023ZM239.67 82.9432C238.591 82.9432 237.665 82.5852 236.892 81.8693C236.131 81.142 235.75 80.2727 235.75 79.2614C235.75 78.2614 236.131 77.4034 236.892 76.6875C237.665 75.9602 238.591 75.5966 239.67 75.5966C240.75 75.5966 241.67 75.9602 242.432 76.6875C243.205 77.4034 243.591 78.2614 243.591 79.2614C243.591 80.2727 243.205 81.142 242.432 81.8693C241.67 82.5852 240.75 82.9432 239.67 82.9432ZM249.237 112.5V77.5909H272.351V83.6761H256.618V91.9943H270.817V98.0795H256.618V112.5H249.237ZM284.317 112.994C282.646 112.994 281.158 112.705 279.851 112.125C278.544 111.534 277.51 110.665 276.749 109.517C275.999 108.358 275.624 106.915 275.624 105.188C275.624 103.733 275.891 102.511 276.425 101.523C276.959 100.534 277.686 99.7386 278.607 99.1364C279.527 98.5341 280.572 98.0795 281.743 97.7727C282.925 97.4659 284.163 97.25 285.459 97.125C286.982 96.9659 288.209 96.8182 289.141 96.6818C290.072 96.5341 290.749 96.3182 291.169 96.0341C291.589 95.75 291.8 95.3295 291.8 94.7727V94.6705C291.8 93.5909 291.459 92.7557 290.777 92.1648C290.107 91.5739 289.152 91.2784 287.913 91.2784C286.607 91.2784 285.567 91.5682 284.794 92.1477C284.021 92.7159 283.51 93.4318 283.26 94.2955L276.544 93.75C276.885 92.1591 277.555 90.7841 278.555 89.625C279.555 88.4545 280.845 87.5568 282.425 86.9318C284.016 86.2955 285.857 85.9773 287.947 85.9773C289.402 85.9773 290.794 86.1477 292.124 86.4886C293.464 86.8295 294.652 87.358 295.686 88.0739C296.732 88.7898 297.555 89.7102 298.158 90.8352C298.76 91.9489 299.061 93.2841 299.061 94.8409V112.5H292.175V108.869H291.97C291.55 109.688 290.987 110.409 290.283 111.034C289.578 111.648 288.732 112.131 287.743 112.483C286.754 112.824 285.612 112.994 284.317 112.994ZM286.396 107.983C287.464 107.983 288.408 107.773 289.226 107.352C290.044 106.92 290.686 106.341 291.152 105.614C291.618 104.886 291.851 104.062 291.851 103.142V100.364C291.624 100.511 291.311 100.648 290.913 100.773C290.527 100.886 290.089 100.994 289.601 101.097C289.112 101.187 288.624 101.273 288.135 101.352C287.646 101.42 287.203 101.483 286.805 101.54C285.953 101.665 285.209 101.864 284.572 102.136C283.936 102.409 283.442 102.778 283.089 103.244C282.737 103.699 282.561 104.267 282.561 104.949C282.561 105.938 282.919 106.693 283.635 107.216C284.362 107.727 285.283 107.983 286.396 107.983ZM285.612 82.9432L289.226 75.1875H295.942L290.743 82.9432H285.612ZM316.524 113.011C313.842 113.011 311.536 112.443 309.604 111.307C307.683 110.159 306.206 108.568 305.172 106.534C304.149 104.5 303.638 102.159 303.638 99.5114C303.638 96.8295 304.155 94.4773 305.189 92.4545C306.234 90.4205 307.717 88.8352 309.638 87.6989C311.558 86.5511 313.842 85.9773 316.49 85.9773C318.774 85.9773 320.774 86.392 322.49 87.2216C324.206 88.0511 325.564 89.2159 326.564 90.7159C327.564 92.2159 328.115 93.9773 328.217 96H321.365C321.172 94.6932 320.661 93.642 319.831 92.8466C319.013 92.0398 317.939 91.6364 316.609 91.6364C315.484 91.6364 314.501 91.9432 313.661 92.5568C312.831 93.1591 312.183 94.0398 311.717 95.1989C311.251 96.358 311.018 97.7614 311.018 99.4091C311.018 101.08 311.246 102.5 311.7 103.67C312.166 104.841 312.82 105.733 313.661 106.347C314.501 106.96 315.484 107.267 316.609 107.267C317.439 107.267 318.183 107.097 318.842 106.756C319.513 106.415 320.064 105.92 320.496 105.273C320.939 104.614 321.229 103.824 321.365 102.903H328.217C328.104 104.903 327.558 106.665 326.581 108.188C325.615 109.699 324.28 110.881 322.575 111.733C320.871 112.585 318.854 113.011 316.524 113.011ZM332.866 112.5V86.3182H340.128V112.5H332.866ZM336.514 82.9432C335.435 82.9432 334.509 82.5852 333.736 81.8693C332.974 81.142 332.594 80.2727 332.594 79.2614C332.594 78.2614 332.974 77.4034 333.736 76.6875C334.509 75.9602 335.435 75.5966 336.514 75.5966C337.594 75.5966 338.514 75.9602 339.276 76.6875C340.048 77.4034 340.435 78.2614 340.435 79.2614C340.435 80.2727 340.048 81.142 339.276 81.8693C338.514 82.5852 337.594 82.9432 336.514 82.9432ZM353.206 77.5909V112.5H345.945V77.5909H353.206Z" fill="black"/>
</svg>
